<?xml version="1.0" standalone="no"?>
<!DOCTYPE svg PUBLIC "-//W3C//DTD SVG 20010904//EN"
 "http://www.w3.org/TR/2001/REC-SVG-20010904/DTD/svg10.dtd">
<svg version="1.0" xmlns="http://www.w3.org/2000/svg"
 width="300.000000pt" height="300.000000pt" viewBox="0 0 300.000000 300.000000"
 preserveAspectRatio="xMidYMid meet">
<metadata>
Created by potrace 1.14, written by Peter Selinger 2001-2017
</metadata>
<g transform="translate(0.000000,300.000000) scale(0.100000,-0.100000)"
fill="#000000" stroke="none">
<path d="M786 1773 c-3 -4 -50 -30 -104 -59 -53 -28 -97 -56 -97 -62 0 -6 -4
-14 -9 -19 -6 -5 -6 -2 -1 6 6 11 4 13 -8 8 -13 -5 -17 0 -17 22 0 16 -6 33
-12 39 -7 5 -65 9 -128 9 l-116 0 2 -128 c1 -73 -3 -129 -8 -129 -5 0 -7 4 -3
10 5 8 -221 -122 -266 -154 -18 -12 -18 -14 4 -34 l23 -22 154 94 155 94 1 98
c1 55 2 104 3 109 0 6 28 10 64 10 l62 0 5 -63 5 -62 25 14 c14 7 82 45 152
85 69 39 131 71 137 71 5 0 88 -45 183 -101 95 -55 189 -109 210 -120 21 -11
38 -25 38 -32 0 -9 -2 -9 -8 1 -6 9 -39 -5 -128 -54 -163 -91 -164 -92 -158
-109 14 -35 45 -26 182 51 277 156 363 204 368 204 3 0 51 -26 107 -59 56 -32
127 -72 157 -89 30 -16 97 -53 147 -82 64 -35 99 -49 113 -45 43 14 23 30
-163 132 l-107 60 210 121 c116 67 216 122 223 122 7 0 21 -6 32 -14 11 -7 49
-29 85 -48 36 -20 93 -52 128 -72 68 -38 72 -37 71 24 -2 68 -4 65 64 66 34 0
64 -3 67 -7 3 -4 4 -52 4 -108 l-1 -101 91 -56 c226 -141 212 -134 232 -120
27 20 13 32 -136 120 l-129 77 1 110 c1 74 -3 114 -11 122 -8 8 -52 12 -130
13 l-118 1 4 -51 c3 -28 1 -46 -4 -40 -4 6 -66 43 -136 82 l-129 72 -41 -24
c-23 -13 -93 -53 -156 -90 -62 -36 -115 -66 -117 -66 -1 0 -38 -22 -81 -48
l-78 -49 -106 59 -106 59 -103 -59 -103 -58 -141 81 c-78 45 -185 108 -238
139 -105 61 -102 59 -112 49z m-51 -53 c-3 -5 -12 -10 -18 -10 -7 0 -6 4 3 10
19 12 23 12 15 0z m1285 -44 c0 -2 -8 -10 -17 -17 -16 -13 -17 -12 -4 4 13 16
21 21 21 13z m-830 -250 c0 -2 -7 -7 -16 -10 -8 -3 -12 -2 -9 4 6 10 25 14 25
6z m-1100 -90 c0 -2 -7 -7 -16 -10 -8 -3 -12 -2 -9 4 6 10 25 14 25 6z"/>
</g>
</svg>
